<svg xmlns="http://www.w3.org/2000/svg" width="129.69" height="133.4" viewBox="0 0 129.69 133.4">
  <g id="Layer_2" data-name="Layer 2">
    <g id="Sign">
      <path d="M106.59,43.13c-2.47-2-5-4-7.64-6.14-19-15.8-34.09-37-34.11-37S49.75,21.19,30.74,37c-2.62,2.17-5.17,4.19-7.65,6.14C10.26,53.25.13,61.25,0,76.46a32.84,32.84,0,0,0,10,23.85,35.2,35.2,0,0,0,24.5,10l.34,0a34,34,0,0,0,24.94-10.8c-1.08,4.77-2,10.51-3.32,14.13-5.09,13.84-13.57,19.72-13,19.73H86.23c.56,0-7.92-5.89-13-19.73-1.33-3.62-2.24-9.36-3.32-14.13a34,34,0,0,0,24.94,10.8l.34,0a35.2,35.2,0,0,0,24.5-10,32.84,32.84,0,0,0,10-23.85C129.56,61.25,119.42,53.25,106.59,43.13Z"/>
    </g>
  </g>
</svg>
